<svg xmlns="http://www.w3.org/2000/svg" xmlns:xlink="http://www.w3.org/1999/xlink" id="Layer_1" width="100%" x="0" y="0" enable-background="new 0 0 420 420" version="1.1" viewBox="0 0 420 420" xml:space="preserve"><path fill="#F0F0F0" stroke="none" d="M279.000000,421.000000 C186.000015,421.000000 93.500023,421.000000 1.000025,421.000000 C1.000017,281.000031 1.000017,141.000061 1.000008,1.000062 C140.999954,1.000042 280.999908,1.000042 420.999908,1.000021 C420.999939,140.999939 420.999939,280.999878 420.999969,420.999908 C373.833344,421.000000 326.666656,421.000000 279.000000,421.000000 M387.000000,177.500000 C387.000000,153.765289 387.000000,130.030563 387.000000,105.764709 C363.213745,105.764709 340.308777,105.764709 316.872864,105.764709 C316.872864,82.323517 316.872864,59.418339 316.872864,36.437950 C246.324936,36.437950 176.319977,36.437950 105.774376,36.437950 C105.774376,59.776485 105.774376,82.681396 105.774376,106.117447 C82.333084,106.117447 59.428432,106.117447 36.442696,106.117447 C36.442696,153.339005 36.442696,200.017105 36.442696,246.621094 C83.446884,246.621094 130.007385,246.621094 177.107544,246.621094 C177.107544,223.343048 177.107544,200.438568 177.107544,177.447601 C200.337418,177.447601 223.022430,177.447601 246.244904,177.447601 C246.244904,200.795990 246.244904,223.700638 246.244904,246.670288 C293.347046,246.670288 339.907043,246.670288 387.000000,246.670288 C387.000000,223.729752 387.000000,201.114883 387.000000,177.500000 M108.780518,386.989807 C131.350586,386.989807 153.920639,386.989807 176.567734,386.989807 C176.567734,362.988525 176.567734,339.656067 176.567734,316.349792 C152.918839,316.349792 129.703934,316.349792 106.623436,316.349792 C106.361023,316.993500 106.133789,317.291321 106.133072,317.589630 C106.080086,339.719727 106.021263,361.849945 106.086594,383.979767 C106.089516,384.969086 107.233459,385.955017 108.780518,386.989807 M317.000000,326.526611 C317.000000,323.118011 317.000000,319.709412 317.000000,316.348816 C292.913727,316.348816 269.702332,316.348816 246.437469,316.348816 C246.437469,340.029266 246.437469,363.358215 246.437469,386.650391 C270.087952,386.650391 293.299347,386.650391 317.000000,386.650391 C317.000000,366.710022 317.000000,347.115204 317.000000,326.526611 z" opacity="1"/><path fill="#CCC178" stroke="none" d="M387.000000,178.000000 C387.000000,201.114883 387.000000,223.729752 387.000000,246.670288 C339.907043,246.670288 293.347046,246.670288 246.244904,246.670288 C246.244904,223.700638 246.244904,200.795990 246.244904,177.447601 C223.022430,177.447601 200.337418,177.447601 177.107544,177.447601 C177.107544,200.438568 177.107544,223.343048 177.107544,246.621094 C130.007385,246.621094 83.446884,246.621094 36.442696,246.621094 C36.442696,200.017105 36.442696,153.339005 36.442696,106.117447 C59.428432,106.117447 82.333084,106.117447 105.774376,106.117447 C105.774376,82.681396 105.774376,59.776485 105.774376,36.437950 C176.319977,36.437950 246.324936,36.437950 316.872864,36.437950 C316.872864,59.418339 316.872864,82.323517 316.872864,105.764709 C340.308777,105.764709 363.213745,105.764709 387.000000,105.764709 C387.000000,130.030563 387.000000,153.765289 387.000000,178.000000 z" opacity="1"/><path fill="#CCC178" stroke="none" d="M108.313225,386.966187 C107.233459,385.955017 106.089516,384.969086 106.086594,383.979767 C106.021263,361.849945 106.080086,339.719727 106.133072,317.589630 C106.133789,317.291321 106.361023,316.993500 106.623436,316.349792 C129.703934,316.349792 152.918839,316.349792 176.567734,316.349792 C176.567734,339.656067 176.567734,362.988525 176.567734,386.989807 C153.920639,386.989807 131.350586,386.989807 108.313225,386.966187 z" opacity="1"/><path fill="#CCC178" stroke="none" d="M317.000000,327.023499 C317.000000,347.115204 317.000000,366.710022 317.000000,386.650391 C293.299347,386.650391 270.087952,386.650391 246.437469,386.650391 C246.437469,363.358215 246.437469,340.029266 246.437469,316.348816 C269.702332,316.348816 292.913727,316.348816 317.000000,316.348816 C317.000000,319.709412 317.000000,323.118011 317.000000,327.023499 z" opacity="1"/></svg>